<?xml version="1.0" encoding="utf-8"?>
<!-- Generator: Adobe Illustrator 27.0.0, SVG Export Plug-In . SVG Version: 6.00 Build 0)  -->
<svg version="1.1" id="Layer_1" xmlns="http://www.w3.org/2000/svg" xmlns:xlink="http://www.w3.org/1999/xlink" x="0px" y="0px"
	 viewBox="0 0 2000 2000" style="enable-background:new 0 0 2000 2000;" xml:space="preserve">
<style type="text/css">
	.st0{fill:#FFFFFF;}
</style>
<g>
	<path class="st0" d="M1817.1,546.1V872c1.4,46.9-5.3,90.9-20.2,132.1c-14.9,41.2-35.8,77.4-62.8,108.6
		c-27,31.2-59.3,57.2-96.9,77.8c-37.6,20.6-78.5,33.7-122.5,39.4v-140.6c54-18.5,90.9-45.8,110.8-82c19.9-36.2,29.8-80.6,29.8-133.1
		h-140.6V546.1H1817.1z"/>
</g>
<g>
	<path class="st0" d="M1280.2,1444.2c-111.3,98.9-266,149.4-464.2,151.5c-201,2.1-357.1-44.8-468.3-140.7
		c-111.2-95.9-167.9-245-170-447.4L171.4,409l326.5-3.4l6.3,598.6c0.4,40.2,4.3,79.7,11.6,118.4c7.3,38.8,22.3,72.9,44.7,102.5
		c22.5,29.6,53.6,53.5,93.3,71.8c39.7,18.3,92.8,27.1,159.4,26.4c116.4-1.2,196.6-28.1,240.4-80.5c43.8-52.4,65.1-134.1,64-245
		l-6.3-598.6l326.5-3.4l6.3,598.6C1446.1,1195.4,1391.5,1345.3,1280.2,1444.2z"/>
</g>
</svg>
