<?xml version="1.0" encoding="utf-8"?>
<!-- Generator: Adobe Illustrator 27.0.0, SVG Export Plug-In . SVG Version: 6.00 Build 0)  -->
<svg version="1.1" id="Layer_1" xmlns="http://www.w3.org/2000/svg" xmlns:xlink="http://www.w3.org/1999/xlink" x="0px" y="0px"
	 viewBox="0 0 2000 2000" style="enable-background:new 0 0 2000 2000;" xml:space="preserve">
<g>
	<path d="M836.6,824v143.8c0.6,20.7-2.4,40.1-8.9,58.3c-6.6,18.2-15.8,34.1-27.7,47.9c-11.9,13.8-26.2,25.2-42.8,34.3
		c-16.6,9.1-34.6,14.9-54,17.4v-62c23.8-8.2,40.1-20.2,48.9-36.2c8.8-16,13.2-35.6,13.2-58.7h-62V824H836.6z"/>
</g>
<g>
	<path d="M599.7,1220.3c-49.1,43.6-117.4,65.9-204.8,66.8c-88.7,0.9-157.6-19.8-206.7-62.1c-49.1-42.3-74.1-108.1-75-197.4
		l-2.8-264.1l144-1.5l2.8,264.1c0.2,17.7,1.9,35.2,5.1,52.2c3.2,17.1,9.8,32.2,19.7,45.2c9.9,13.1,23.6,23.6,41.2,31.7
		c17.5,8.1,41,12,70.3,11.7c51.4-0.5,86.7-12.4,106.1-35.5c19.3-23.1,28.7-59.2,28.2-108.1l-2.8-264.1l144-1.5l2.8,264.1
		C672.9,1110.5,648.8,1176.7,599.7,1220.3z"/>
</g>
<g>
	<path d="M1109.6,974.3v-21.6h-0.9c-5.4,9-12.4,15.5-21,19.5c-8.6,4-17.4,6-26.4,6c-11.4,0-20.7-1.5-28-4.5c-7.3-3-13-7.2-17.2-12.7
		c-4.2-5.5-7.1-12.2-8.8-20.1c-1.7-7.9-2.5-16.6-2.5-26.2v-95.3h42.6v87.5c0,12.8,2,22.3,6,28.6c4,6.3,11.1,9.4,21.3,9.4
		c11.6,0,20-3.4,25.2-10.3c5.2-6.9,7.8-18.2,7.8-34v-81.2h42.6v155H1109.6z"/>
	<path d="M1223.8,819.3v21h0.6c5.6-8,12.3-14.2,20.2-18.6c7.9-4.4,16.9-6.6,27.1-6.6c9.8,0,18.7,1.9,26.8,5.7
		c8.1,3.8,14.2,10.5,18.4,20.1c4.6-6.8,10.8-12.8,18.7-18c7.9-5.2,17.2-7.8,28-7.8c8.2,0,15.8,1,22.8,3c7,2,13,5.2,18,9.6
		c5,4.4,8.9,10.1,11.7,17.2c2.8,7.1,4.2,15.6,4.2,25.6v103.7h-42.6v-87.8c0-5.2-0.2-10.1-0.6-14.7c-0.4-4.6-1.5-8.6-3.3-12
		c-1.8-3.4-4.5-6.1-7.9-8.1c-3.5-2-8.2-3-14.2-3s-10.8,1.2-14.5,3.4c-3.7,2.3-6.6,5.3-8.7,9c-2.1,3.7-3.5,7.9-4.2,12.6
		c-0.7,4.7-1,9.4-1,14.2v86.3h-42.6v-86.9c0-4.6-0.1-9.1-0.3-13.6c-0.2-4.5-1.1-8.6-2.5-12.4c-1.5-3.8-4-6.8-7.5-9.1
		c-3.5-2.3-8.6-3.4-15.4-3.4c-2,0-4.6,0.5-7.9,1.3c-3.3,0.9-6.5,2.6-9.6,5.1c-3.1,2.5-5.7,6.1-7.9,10.8c-2.2,4.7-3.3,10.8-3.3,18.4
		v89.9h-42.6v-155H1223.8z"/>
	<path d="M1496.6,760.3v78h0.6c5.2-8,12.2-13.8,21.1-17.5c8.9-3.7,18.1-5.5,27.7-5.5c7.8,0,15.5,1.6,23.1,4.8
		c7.6,3.2,14.4,8.1,20.5,14.7c6.1,6.6,11,15,14.8,25.3c3.8,10.3,5.7,22.5,5.7,36.7c0,14.2-1.9,26.4-5.7,36.7
		c-3.8,10.3-8.7,18.7-14.8,25.3c-6.1,6.6-12.9,11.5-20.5,14.7c-7.6,3.2-15.3,4.8-23.1,4.8c-11.4,0-21.6-1.8-30.6-5.4
		c-9-3.6-15.8-9.7-20.4-18.3h-0.6v19.8H1454V760.3H1496.6z M1565.6,878.1c-1.4-6-3.6-11.3-6.6-15.9c-3-4.6-6.7-8.2-11.2-10.9
		c-4.5-2.7-9.9-4-16.3-4c-6.2,0-11.6,1.3-16.2,4c-4.6,2.7-8.4,6.3-11.4,10.9c-3,4.6-5.2,9.9-6.6,15.9c-1.4,6-2.1,12.3-2.1,18.9
		c0,6.4,0.7,12.6,2.1,18.6c1.4,6,3.6,11.3,6.6,15.9c3,4.6,6.8,8.2,11.4,10.9c4.6,2.7,10,4,16.2,4c6.4,0,11.8-1.3,16.3-4
		c4.5-2.7,8.2-6.3,11.2-10.9c3-4.6,5.2-9.9,6.6-15.9c1.4-6,2.1-12.2,2.1-18.6C1567.7,890.4,1566.9,884.1,1565.6,878.1z"/>
	<path d="M1681,760.3v214.1h-42.6V760.3H1681z"/>
	<path d="M1760.1,937.2c6.4,6.2,15.6,9.3,27.6,9.3c8.6,0,16-2.1,22.2-6.4c6.2-4.3,10-8.8,11.4-13.6h37.5
		c-6,18.6-15.2,31.9-27.6,39.9c-12.4,8-27.4,12-45,12c-12.2,0-23.2-1.9-33-5.8c-9.8-3.9-18.1-9.4-24.9-16.6
		c-6.8-7.2-12-15.8-15.7-25.8c-3.7-10-5.5-21-5.5-33c0-11.6,1.9-22.4,5.7-32.4c3.8-10,9.2-18.6,16.2-25.9c7-7.3,15.3-13,25-17.2
		c9.7-4.2,20.4-6.3,32.2-6.3c13.2,0,24.7,2.5,34.5,7.6c9.8,5.1,17.8,11.9,24.1,20.5c6.3,8.6,10.8,18.4,13.6,29.4
		c2.8,11,3.8,22.5,3,34.5h-111.8C1750.2,921,1753.7,931,1760.1,937.2z M1808.2,855.6c-5.1-5.6-12.8-8.4-23.2-8.4
		c-6.8,0-12.4,1.2-16.9,3.4c-4.5,2.3-8.1,5.1-10.8,8.5c-2.7,3.4-4.6,7-5.7,10.8c-1.1,3.8-1.8,7.2-1.9,10.2h69.3
		C1816.9,869.4,1813.3,861.2,1808.2,855.6z"/>
	<path d="M1047.2,1030.1v78h0.6c5.2-8,12.2-13.8,21.1-17.5c8.9-3.7,18.1-5.5,27.7-5.5c7.8,0,15.5,1.6,23.1,4.8
		c7.6,3.2,14.4,8.1,20.5,14.7c6.1,6.6,11,15,14.8,25.3c3.8,10.3,5.7,22.5,5.7,36.7c0,14.2-1.9,26.4-5.7,36.7
		c-3.8,10.3-8.7,18.7-14.8,25.3c-6.1,6.6-12.9,11.5-20.5,14.7c-7.6,3.2-15.3,4.8-23.1,4.8c-11.4,0-21.6-1.8-30.6-5.4
		c-9-3.6-15.8-9.7-20.4-18.3h-0.6v19.8h-40.5v-214.1H1047.2z M1116.1,1147.9c-1.4-6-3.6-11.3-6.6-15.9c-3-4.6-6.7-8.2-11.2-10.9
		c-4.5-2.7-9.9-4-16.3-4c-6.2,0-11.6,1.3-16.2,4c-4.6,2.7-8.4,6.3-11.4,10.9c-3,4.6-5.2,9.9-6.6,15.9c-1.4,6-2.1,12.3-2.1,18.9
		c0,6.4,0.7,12.6,2.1,18.6c1.4,6,3.6,11.3,6.6,15.9c3,4.6,6.8,8.2,11.4,10.9c4.6,2.7,10,4,16.2,4c6.4,0,11.8-1.3,16.3-4
		c4.5-2.7,8.2-6.3,11.2-10.9c3-4.6,5.2-9.9,6.6-15.9c1.4-6,2.1-12.2,2.1-18.6C1118.2,1160.2,1117.5,1153.9,1116.1,1147.9z"/>
	<path d="M1233.4,1207c6.4,6.2,15.6,9.3,27.6,9.3c8.6,0,16-2.1,22.2-6.4c6.2-4.3,10-8.8,11.4-13.6h37.5c-6,18.6-15.2,31.9-27.6,39.9
		c-12.4,8-27.4,12-45,12c-12.2,0-23.2-1.9-33-5.8c-9.8-3.9-18.1-9.4-24.9-16.6c-6.8-7.2-12-15.8-15.7-25.8c-3.7-10-5.5-21-5.5-33
		c0-11.6,1.9-22.4,5.7-32.4c3.8-10,9.2-18.6,16.2-25.9c7-7.3,15.3-13,25-17.2c9.7-4.2,20.4-6.3,32.2-6.3c13.2,0,24.7,2.5,34.5,7.6
		c9.8,5.1,17.8,11.9,24.1,20.5c6.3,8.6,10.8,18.4,13.6,29.4c2.8,11,3.8,22.5,3,34.5h-111.8C1223.5,1190.8,1227,1200.8,1233.4,1207z
		 M1281.5,1125.5c-5.1-5.6-12.8-8.4-23.2-8.4c-6.8,0-12.4,1.2-16.9,3.4c-4.5,2.3-8.1,5.1-10.8,8.5c-2.7,3.4-4.6,7-5.7,10.8
		c-1.1,3.8-1.8,7.2-1.9,10.2h69.3C1290.1,1139.2,1286.6,1131,1281.5,1125.5z"/>
	<path d="M1358.1,1136.8c0.6-10,3.1-18.3,7.5-24.9c4.4-6.6,10-11.9,16.8-15.9c6.8-4,14.4-6.8,22.9-8.5c8.5-1.7,17-2.5,25.6-2.5
		c7.8,0,15.7,0.6,23.7,1.7c8,1.1,15.3,3.3,21.9,6.4c6.6,3.2,12,7.6,16.2,13.3c4.2,5.7,6.3,13.2,6.3,22.6v80.6c0,7,0.4,13.7,1.2,20.1
		c0.8,6.4,2.2,11.2,4.2,14.4h-43.2c-0.8-2.4-1.5-4.8-1.9-7.3c-0.5-2.5-0.9-5-1.1-7.6c-6.8,7-14.8,11.9-24,14.7
		c-9.2,2.8-18.6,4.2-28.2,4.2c-7.4,0-14.3-0.9-20.7-2.7c-6.4-1.8-12-4.6-16.8-8.4c-4.8-3.8-8.5-8.6-11.2-14.4
		c-2.7-5.8-4-12.7-4-20.7c0-8.8,1.5-16,4.6-21.7c3.1-5.7,7.1-10.2,12-13.6c4.9-3.4,10.5-5.9,16.8-7.6c6.3-1.7,12.6-3,19-4
		c6.4-1,12.7-1.8,18.9-2.4c6.2-0.6,11.7-1.5,16.5-2.7c4.8-1.2,8.6-2.9,11.4-5.2c2.8-2.3,4.1-5.6,3.9-10c0-4.6-0.8-8.2-2.2-10.9
		s-3.5-4.8-6-6.3c-2.5-1.5-5.4-2.5-8.7-3c-3.3-0.5-6.8-0.7-10.6-0.7c-8.4,0-15,1.8-19.8,5.4c-4.8,3.6-7.6,9.6-8.4,18H1358.1z
		 M1456.4,1168.3c-1.8,1.6-4,2.8-6.7,3.7c-2.7,0.9-5.6,1.6-8.7,2.2c-3.1,0.6-6.3,1.1-9.7,1.5c-3.4,0.4-6.8,0.9-10.2,1.5
		c-3.2,0.6-6.3,1.4-9.4,2.4c-3.1,1-5.8,2.4-8.1,4c-2.3,1.7-4.1,3.9-5.5,6.4c-1.4,2.6-2.1,5.9-2.1,9.9c0,3.8,0.7,7,2.1,9.6
		c1.4,2.6,3.3,4.6,5.7,6.1c2.4,1.5,5.2,2.5,8.4,3.1c3.2,0.6,6.5,0.9,9.9,0.9c8.4,0,14.9-1.4,19.5-4.2c4.6-2.8,8-6.1,10.2-10
		c2.2-3.9,3.5-7.8,4-11.8c0.5-4,0.8-7.2,0.8-9.6V1168.3z"/>
	<path d="M1572.4,1089.2v21.6h0.9c5.4-9,12.4-15.5,21-19.6c8.6-4.1,17.4-6.1,26.4-6.1c11.4,0,20.7,1.6,28,4.6
		c7.3,3.1,13,7.4,17.2,12.9c4.2,5.5,7.1,12.2,8.8,20.1c1.7,7.9,2.5,16.6,2.5,26.2v95.3h-42.6v-87.5c0-12.8-2-22.3-6-28.6
		c-4-6.3-11.1-9.4-21.3-9.4c-11.6,0-20,3.4-25.2,10.3c-5.2,6.9-7.8,18.2-7.8,34v81.2H1532v-155H1572.4z"/>
	<path d="M1745.6,1205.6c1.9,3.3,4.3,6,7.3,8.1c3,2.1,6.4,3.6,10.3,4.6c3.9,1,7.9,1.5,12.1,1.5c3,0,6.1-0.3,9.4-1.1
		c3.3-0.7,6.3-1.8,9-3.3c2.7-1.5,4.9-3.5,6.7-6c1.8-2.5,2.7-5.6,2.7-9.4c0-6.4-4.2-11.2-12.7-14.4c-8.5-3.2-20.3-6.4-35.5-9.6
		c-6.2-1.4-12.2-3-18.1-4.9c-5.9-1.9-11.1-4.4-15.7-7.5c-4.6-3.1-8.3-7-11.1-11.7c-2.8-4.7-4.2-10.4-4.2-17.2
		c0-10,1.9-18.2,5.8-24.6c3.9-6.4,9-11.4,15.4-15.1c6.4-3.7,13.6-6.3,21.6-7.8c8-1.5,16.2-2.2,24.6-2.2c8.4,0,16.5,0.8,24.4,2.4
		c7.9,1.6,14.9,4.3,21.1,8.1c6.2,3.8,11.3,8.8,15.4,15.1c4.1,6.3,6.5,14.2,7.3,23.8h-40.5c-0.6-8.2-3.7-13.7-9.3-16.6
		c-5.6-2.9-12.2-4.3-19.8-4.3c-2.4,0-5,0.1-7.8,0.4c-2.8,0.3-5.3,1-7.6,1.9c-2.3,1-4.3,2.5-5.8,4.3c-1.6,1.9-2.4,4.4-2.4,7.6
		c0,3.8,1.4,6.9,4.2,9.3c2.8,2.4,6.4,4.3,10.9,5.8c4.5,1.5,9.6,2.8,15.4,4c5.8,1.2,11.7,2.5,17.7,3.9c6.2,1.4,12.2,3.1,18.1,5.1
		c5.9,2,11.1,4.6,15.7,7.9c4.6,3.3,8.3,7.4,11.1,12.3c2.8,4.9,4.2,10.9,4.2,18.1c0,10.2-2.1,18.7-6.1,25.6
		c-4.1,6.9-9.4,12.4-16,16.6c-6.6,4.2-14.1,7.1-22.6,8.8c-8.5,1.7-17.1,2.5-25.9,2.5c-9,0-17.8-0.9-26.4-2.7
		c-8.6-1.8-16.2-4.8-22.9-9c-6.7-4.2-12.2-9.7-16.5-16.6c-4.3-6.9-6.6-15.5-7-25.9h40.5C1742.7,1198.4,1743.7,1202.4,1745.6,1205.6z
		"/>
	<path d="M1919.6,1198v46.2h-47.1V1198H1919.6z"/>
</g>
<rect x="2280.7" y="1306.7" style="fill:none;" width="3.9" height="0"/>
</svg>
