<svg width="14" height="12" viewBox="0 0 14 12" fill="none" xmlns="http://www.w3.org/2000/svg">
<path fill-rule="evenodd" clip-rule="evenodd" d="M7.66671 5.33333C6.42415 5.33333 5.38008 4.48349 5.08405 3.33333H0.333374V2H5.08405C5.38008 0.849849 6.42415 0 7.66671 0C9.13947 0 10.3334 1.19391 10.3334 2.66667C10.3334 4.13943 9.13947 5.33333 7.66671 5.33333ZM11.6667 2H13.6667V3.33333H11.6667V2ZM4.33337 12C3.09081 12 2.04675 11.1502 1.75072 10H0.333374V8.66667H1.75072C2.04675 7.51652 3.09081 6.66667 4.33337 6.66667C5.80613 6.66667 7.00004 7.86057 7.00004 9.33333C7.00004 10.8061 5.80613 12 4.33337 12ZM8.33337 10H13.6667V8.66667H8.33337V10ZM5.66671 9.33333C5.66671 10.0697 5.06975 10.6667 4.33337 10.6667C3.59699 10.6667 3.00004 10.0697 3.00004 9.33333C3.00004 8.59695 3.59699 8 4.33337 8C5.06975 8 5.66671 8.59695 5.66671 9.33333ZM9.00004 2.66667C9.00004 3.40305 8.40309 4 7.66671 4C6.93033 4 6.33337 3.40305 6.33337 2.66667C6.33337 1.93029 6.93033 1.33333 7.66671 1.33333C8.40309 1.33333 9.00004 1.93029 9.00004 2.66667Z" fill="black"/>
</svg>
